<svg width="154" height="54" viewBox="0 0 154 54" fill="none" xmlns="http://www.w3.org/2000/svg">
<path id="Vector" d="M136.09 53.09H17.5101C12.866 53.0847 8.41387 51.2368 5.13097 47.9521C1.84806 44.6673 0.00269185 40.2141 4.56663e-05 35.57V17.57C-0.00521255 15.2662 0.44367 12.984 1.32103 10.8539C2.19839 8.72374 3.48705 6.78741 5.11327 5.15563C6.73948 3.52384 8.67137 2.22859 10.7985 1.34395C12.9256 0.45931 15.2063 0.00262236 17.5101 0L136.09 0C140.735 0.00529342 145.188 1.85285 148.473 5.13734C151.757 8.42183 153.605 12.875 153.61 17.52V35.57C153.605 40.215 151.757 44.6682 148.473 47.9527C145.188 51.2372 140.735 53.0847 136.09 53.09ZM17.5101 3C13.6617 3.0053 9.97254 4.5371 7.25224 7.25926C4.53195 9.98143 3.00269 13.6716 3.00005 17.52V35.57C3.00533 39.4176 4.53545 43.1062 7.25517 45.8278C9.97489 48.5494 13.6625 50.0821 17.5101 50.09H136.09C139.939 50.0847 143.63 48.5532 146.351 45.8313C149.073 43.1095 150.605 39.4193 150.61 35.57V17.57C150.614 15.6597 150.241 13.7674 149.514 12.0012C148.786 10.235 147.717 8.62942 146.369 7.27634C145.021 5.92326 143.419 4.84915 141.655 4.1154C139.891 3.38164 138 3.00262 136.09 3H17.5101Z" fill="url(#paint0_linear_1_62)"/>
<defs>
<linearGradient id="paint0_linear_1_62" x1="4.56661e-05" y1="26.54" x2="153.61" y2="26.54" gradientUnits="userSpaceOnUse">
<stop stop-color="#EF7334"/>
<stop offset="1" stop-color="#ED1E64"/>
</linearGradient>
</defs>
</svg>
